<svg height="655.69414" viewBox="0 0 974 655.69414" width="974" xmlns="http://www.w3.org/2000/svg"><circle cx="391.76004" cy="157.83499" fill="#ff7d51" r="68.57277"/><path d="m307.638 442.615-80.548-79.366-19.975-19.683-59.62-58.744-73.906 78.896-73.589 78.567" fill="#f2f2f2"/><path d="m704.31 443.094h-544.6l67.38-73.04 124.49-146.02 8.39-9.84 112.61-132.09 77.92 123.41 2.04 3.23 99.13 156.98z" fill="#f2f2f2"/><path d="m974 442.615-134.517-158.72-65.944-77.805-63.735 79.913-58.134 72.915-66.49 83.367" fill="#f2f2f2"/><path d="m207.115 343.566-35.493 23.797-41.905-16.508-56.128 12.863 73.906-78.896z" opacity=".1"/><path d="m550.5 205.514-11.89 20.89-26.66-27.93-29.21 27.93-16.51-31.74-26.67 31.74-7.62-20.31-17.77 20.31-31.75-20.31-22.45 8.1 112.61-132.09z" opacity=".1"/><path d="m839.483 283.895-32.928 40.292-26.667-31.746-40.635 33.016-29.449-39.454 63.735-79.913z" opacity=".1"/><path d="m952.88867 566.30606-1.77734-.918c23.082-44.624 10.73926-102.5752-3.67871-143.332a439.29211 439.29211 0 0 0 -37.27783-78.67481l1.69042-1.06836a441.53607 441.53607 0 0 1 37.47217 79.0752c14.55078 41.12991 26.98047 99.65918 3.57129 144.91797z" fill="#2f2e41" transform="translate(-113 -122.15293)"/><path d="m928.40984 377.34739h72.18033v1.99936h-72.18033z" fill="#2f2e41" transform="matrix(.17975 -.98371 .98371 .17975 305.95091 1136.97956)"/><path d="m915.49964 390.67137h2.00072v98.35141h-2.00072z" fill="#2f2e41" transform="matrix(.73207129 -.68122803 .68122803 .73207129 -167.07949 620.04023)"/><path d="m958.99569 505.34692h58.00862v2.00031h-58.00862z" fill="#2f2e41" transform="matrix(.58584701 -.81042167 .81042167 .58584701 -114.17148 888.24885)"/><circle cx="863" cy="191.69414" fill="#ff7d51" r="10"/><circle cx="754" cy="268.69414" fill="#3f3d56" r="10"/><circle cx="798" cy="278.69414" fill="#3f3d56" r="10"/><circle cx="778" cy="317.69414" fill="#ff7d51" r="10"/><circle cx="903" cy="342.69414" fill="#3f3d56" r="10"/><circle cx="870" cy="353.69414" fill="#3f3d56" r="10"/><circle cx="893" cy="385.69414" fill="#3f3d56" r="10"/><circle cx="788" cy="203.69414" fill="#3f3d56" r="10"/><path d="m703.88867 564.30606-1.77734-.918c23.082-44.624 10.73926-102.5752-3.67871-143.332a439.29211 439.29211 0 0 0 -37.27783-78.67481l1.69042-1.06836a441.53607 441.53607 0 0 1 37.47217 79.0752c14.55078 41.12991 26.98047 99.65918 3.57129 144.91797z" fill="#2f2e41" transform="translate(-113 -122.15293)"/><path d="m679.40984 375.34739h72.18033v1.99936h-72.18033z" fill="#2f2e41" transform="matrix(.17975 -.98371 .98371 .17975 103.67484 890.39445)"/><path d="m666.49964 388.67137h2.00072v98.35141h-2.00072z" fill="#2f2e41" transform="matrix(.73207129 -.68122803 .68122803 .73207129 -232.43128 449.87859)"/><path d="m709.99569 503.34692h58.00862v2.00031h-58.00862z" fill="#2f2e41" transform="matrix(.58584701 -.81042167 .81042167 .58584701 -215.67473 685.62555)"/><circle cx="614" cy="189.69414" fill="#3f3d56" r="10"/><circle cx="505" cy="266.69414" fill="#3f3d56" r="10"/><circle cx="549" cy="276.69414" fill="#3f3d56" r="10"/><circle cx="529" cy="315.69414" fill="#3f3d56" r="10"/><circle cx="654" cy="340.69414" fill="#ff7d51" r="10"/><circle cx="621" cy="351.69414" fill="#3f3d56" r="10"/><circle cx="644" cy="383.69414" fill="#3f3d56" r="10"/><circle cx="539" cy="201.69414" fill="#3f3d56" r="10"/><path d="m286.11133 564.30606 1.77734-.918c-23.082-44.624-10.73926-102.5752 3.67871-143.332a439.29211 439.29211 0 0 1 37.27783-78.67481l-1.69042-1.06836a441.53607 441.53607 0 0 0 -37.47217 79.0752c-14.55078 41.12991-26.98047 99.65918-3.57129 144.91797z" fill="#2f2e41" transform="translate(-113 -122.15293)"/><path d="m273.50032 340.25691h1.99936v72.18033h-1.99936z" fill="#2f2e41" transform="matrix(.98371323 -.17974505 .17974505 .98371323 -176.17579 -66.68344)"/><path d="m273.32429 436.84671h98.35141v2.00072h-98.35141z" fill="#2f2e41" transform="matrix(.68122803 -.73207129 .73207129 .68122803 -330.73131 253.51343)"/><path d="m249.99985 475.34276h2.00031v58.00862h-2.00031z" fill="#2f2e41" transform="matrix(.81042167 -.58584701 .58584701 .81042167 -360.88606 120.50794)"/><circle cx="150" cy="189.69414" fill="#3f3d56" r="10"/><circle cx="259" cy="266.69414" fill="#3f3d56" r="10"/><circle cx="215" cy="276.69414" fill="#3f3d56" r="10"/><circle cx="235" cy="315.69414" fill="#3f3d56" r="10"/><circle cx="110" cy="340.69414" fill="#3f3d56" r="10"/><circle cx="143" cy="351.69414" fill="#3f3d56" r="10"/><circle cx="120" cy="383.69414" fill="#ff7d51" r="10"/><circle cx="225" cy="201.69414" fill="#3f3d56" r="10"/><path d="m0 441.69414h974v2h-974z" fill="#2f2e41"/><circle cx="430.01033" cy="420.09527" fill="#2f2e41" r="12.03372"/><path d="m536.51211 551.39383s.24068 4.33214-2.64741 4.81349l4.09146 9.86765 5.05417 8.18294h4.33214l2.64742-2.40675-.48135-3.12877-1.44405-5.53551-1.68472-1.68472s.24067-6.97956 2.40674-10.10833-12.2744 0-12.2744 0z" fill="#ffb8b8" transform="translate(-113 -122.15293)"/><path d="m536.51211 551.39383s.24068 4.33214-2.64741 4.81349l4.09146 9.86765 5.05417 8.18294h4.33214l2.64742-2.40675-.48135-3.12877-1.44405-5.53551-1.68472-1.68472s.24067-6.97956 2.40674-10.10833-12.2744 0-12.2744 0z" opacity=".1" transform="translate(-113 -122.15293)"/><circle cx="433.37977" cy="408.54289" fill="#2f2e41" r="5.77619"/><path d="m540.84426 528.28908a5.77618 5.77618 0 0 1 5.77618-5.77619c.0761 0 .15151.00282.2269.00574a5.77587 5.77587 0 1 0 -1.89784 11.30022 5.778 5.778 0 0 1 -4.10524-5.52977z" fill="#2f2e41" transform="translate(-113 -122.15293)"/><path d="m535.06807 556.448-2.40675-.24067a3.9507 3.9507 0 0 0 -3.85079.9627c-1.68472 1.68472.24068 20.698.24068 20.698l6.01686-4.09146.9627-9.627z" fill="#ffb8b8" transform="translate(-113 -122.15293)"/><path d="m523.275 631.05709-3.36945 19.01328s-2.16607 7.94226-4.81349 10.349-6.73888 22.38272-7.70158 26.71486-1.20337 6.73889-2.40674 8.42361 0 7.70159 0 7.70159h2.64742l3.85079-.722s.722-9.14563 1.444-10.83035 12.51508-26.95554 12.51508-26.95554 7.94226-11.793 9.3863-18.29127a41.61334 41.61334 0 0 1 5.29484-12.27439z" fill="#ffb8b8" transform="translate(-113 -122.15293)"/><path d="m547.58314 630.09439 3.12877 21.90138s0 6.73888.9627 9.3863 1.68472 18.29127 2.64742 21.90138 3.12877 11.55238 2.40674 12.51508a34.33331 34.33331 0 0 0 -2.16607 4.81349l2.40675 5.29484 6.49821-4.57282-.9627-39.47062s2.64742-33.45375.9627-34.41645-10.10833-3.85079-15.88452 2.64742z" fill="#ffb8b8" transform="translate(-113 -122.15293)"/><path d="m529.05121 606.50829-4.81349 13.2371s-3.61012 13.95912-1.68473 14.68114 23.82678 3.85079 24.30813 1.20337a27.13492 27.13492 0 0 0 .48135-3.12877s18.77261.722 19.01328-3.61011a155.69418 155.69418 0 0 0 -.9627-17.56924 4.6911 4.6911 0 0 0 -4.33214-3.61012c-2.64742 0-25.51149-6.01686-32.0097-1.20337z" fill="#2f2e41" transform="translate(-113 -122.15293)"/><path d="m505.4651 700.37134a1.585 1.585 0 0 1 2.16608-.48135c1.444.722 4.33214.48135 4.33214.48135l-.722 6.49821s2.8881 11.55238-2.40674 11.55238-8.18294-3.85079-7.70159-5.29484 1.68473-12.75575 1.68473-12.75575 2.31245-5.68205 2.40674-6.01686.24064 6.01686.24064 6.01686z" fill="#2f2e41" transform="translate(-113 -122.15293)"/><path d="m555.76607 699.168s-.48134 2.64742 1.68473 2.40674 5.77618-2.40674 6.01686-2.16607a11.86152 11.86152 0 0 1 1.20337 3.8508c.24068 1.68472.722 5.29483 2.88809 6.97956s5.53552 6.97956 1.68473 7.22023-10.83036 0-11.071-2.40674-.24068-5.05417-.24068-5.05417-2.16607.24068-2.88809-.24067-5.53551-3.36945-4.09147-7.22024 5.51846-6.33217 5.51846-6.33217z" fill="#2f2e41" transform="translate(-113 -122.15293)"/><circle cx="429.04763" cy="423.46471" fill="#ffb8b8" r="9.38631"/><path d="m547.10179 563.18688s4.33214 0 5.29484 2.40674-.9627 7.46091-.9627 7.46091l-2.1947-5.36449z" fill="#ffb8b8" transform="translate(-113 -122.15293)"/><path d="m531.458 555.96664h2.888s7.46091 11.071 8.66429 12.03373 5.53551 1.20337 5.53551.48135-2.16607-6.97956-2.16607-6.97956l1.92539 1.444 3.12877 7.70159s8.42361 21.17935 7.70159 23.34542a2.14639 2.14639 0 0 0 1.20337 2.8881c.24067.24067 2.88809 5.77619 1.68472 7.94226s1.20337 4.81349 1.20337 4.81349 1.20338 5.29484-2.88809 6.01686-6.25754-3.12877-11.071-1.20337-11.3117 2.16607-12.75575-.722a54.00472 54.00472 0 0 1 -2.64741-6.73888s-2.64742 4.57281-1.444 8.18293-.48135-.24067-1.68472-.24067-3.36945-.24068-3.36945-1.68473-4.81352-25.75216-4.81352-25.75216l6.73889-15.40316s6.25754-2.8881 5.53551-6.25754.24067-8.18293-3.3694-9.86766z" fill="#3f3d56" transform="translate(-113 -122.15293)"/><path d="m532.2445 557.49729a4.20947 4.20947 0 0 0 -4.47154-.746 10.35028 10.35028 0 0 0 -5.942 6.9169c-2.16607 6.97956-6.73889 25.51149-5.77619 30.08431s8.905 25.03015 8.905 25.03015a53.68267 53.68267 0 0 0 .9627 5.53551c.24067.24068 3.85079-8.66428 3.85079-8.66428l-6.25754-23.82678 8.42358-25.7521s3.42679-5.65423.3052-8.57771z" fill="#ffb8b8" transform="translate(-113 -122.15293)"/><ellipse cx="429.88999" cy="415.52245" fill="#2f2e41" rx="9.26597" ry="6.01686"/><path d="m337.593 563.41012s-16.12066 8.68035-16.74069 16.12066-9.9204 26.04106-9.9204 26.04106-36.58149-10.54043-37.20152-11.16046-3.10013 11.16046-3.10013 11.16046l13.02054 1.86008 24.181 8.68035s5.58023 8.06033 14.88061-3.10013 32.86134-35.34144 32.86134-35.34144z" fill="#2f2e41" transform="translate(-113 -122.15293)"/><path d="m334.49288 593.79136s20.46084 19.84081 19.84081 24.181-9.9204 39.68161-9.9204 39.68161l7.4403 3.72016 4.9602-3.10013 9.92041-42.78175s3.73433-5.23978-3.40305-11.30024-12.09759-27.14132-12.09759-27.14132z" fill="#2f2e41" transform="translate(-113 -122.15293)"/><circle cx="279.46525" cy="421.72639" fill="#a0616a" r="10.54043"/><path d="m385.335 542.32926s-10.54043-4.9602-11.78048-3.72015 2.48011 16.12066 2.48011 16.12066 9.9204-5.58023 11.16045-5.58023-1.86008-6.82028-1.86008-6.82028z" fill="#a0616a" transform="translate(-113 -122.15293)"/><path d="m379.1347 549.14954s-3.10012-12.40051-4.34018-12.40051-13.02053 1.86008-20.46083 10.54043-15.50063 13.64054-17.98069 15.50063-4.34018 3.72016 0 5.58023 9.30038 6.82028 11.16045 9.92041 14.26058-.62 14.26058-.62 5.58023-10.54043 7.44031-10.54043 11.78044-14.26061 9.92036-17.98076z" fill="#ff7d51" transform="translate(-113 -122.15293)"/><path d="m360.53394 562.79009s-8.68035 11.78048-8.68035 20.46084 4.9602 22.94093 4.9602 22.94093 4.34018 21.08086 8.06033 13.64056-2.4801-17.36071-2.4801-17.36071l-2.4801-22.32091 4.9602-11.78048z" fill="#a0616a" transform="translate(-113 -122.15293)"/><path d="m275.68332 595.12661s-6.91312-5.0554-7.53315-3.19533-9.9204 22.94094-6.82027 24.181 12.4005-11.16046 13.02053-11.16046-.43433-10.35003 1.33289-9.82521z" fill="#2f2e41" transform="translate(-113 -122.15293)"/><path d="m355.57374 654.55384s9.30038 4.9602 11.16046 4.9602 5.58022 2.4801 1.24 3.72015-23.561 3.10013-24.181 1.24 0-6.82028 0-6.82028 11.78054-1.24 11.78054-3.10007z" fill="#2f2e41" transform="translate(-113 -122.15293)"/><path d="m404.69027 543.689a5.22235 5.22235 0 0 0 .29684-2.39062c-.05774-1.78113-.18092-3.72962-1.39189-5.037-.62043-.66983-1.4922-1.12243-1.92955-1.92388a12.051 12.051 0 0 1 -.55931-1.729 4.82364 4.82364 0 0 0 -3.42683-2.78763 14.25124 14.25124 0 0 0 -4.57266-.16737 21.20619 21.20619 0 0 0 -6.41938 1.13012 7.16945 7.16945 0 0 0 -4.43049 4.49524 10.59086 10.59086 0 0 0 -.25915 2.46788l-.09062 3.45226a2.23007 2.23007 0 0 0 2.55837.27537c.84057-.3734 1.55266-1.0008 2.4062-1.34351a2.11531 2.11531 0 0 1 2.51134.4552 7.5376 7.5376 0 0 1 .43732.94961c1.70177 3.38845 6.27423-.21783 8.64952-.16593 2.12525.04643 4.6629 5.6594 6.22029 2.31926z" fill="#2f2e41" transform="translate(-113 -122.15293)"/><path d="m370.96781 666.37791c15.45158 0 17.94016-5.75642 18.0431-6.01376l-1.14863-.46744c-.02543.05813-2.67083 5.79094-19.24561 5.19816-16.08856-.57522-40.98221-.07932-44.3088-.00847-.93246-1.57853-5.114-7.98283-11.01755-6.8003l.2434 1.21583c5.67227-1.13833 9.8314 6.42974 9.87318 6.50663l.17983.33363.37965-.00787c.27307-.00606 27.46215-.61155 44.60549-.00061q1.24701.0445 2.39594.0442z" fill="#2f2e41" transform="translate(-113 -122.15293)"/><rect fill="#2f2e41" height="4.9602" rx="2.29788" transform="matrix(-1 0 0 -1 629.14875 1217.95601)" width="4.9602" x="368.59427" y="667.57437"/><rect fill="#2f2e41" height="4.9602" rx="2.29788" transform="matrix(-1 0 0 -1 543.58526 1217.95601)" width="4.9602" x="325.81253" y="667.57437"/><path d="m377.27463 547.90949s-2.94747 14.92562-6.12392 17.69323-3.92342 5.44867-6.03 6.27822-9.54693-7.8508-9.54693-8.47082 21.70085-15.50063 21.70085-15.50063z" fill="#ff7d51" transform="translate(-113 -122.15293)"/><path d="m171 552.69414h156v2h-156z" fill="#2f2e41"/><path d="m357 594.69414h156v2h-156z" fill="#2f2e41"/><path d="m576 653.69414h64v2h-64z" fill="#2f2e41"/><path d="m177 636.69414h64v2h-64z" fill="#2f2e41"/><path d="m532.41699 495.69414h275.16602v2h-275.16602z" fill="#2f2e41"/><path d="m334.45218 202.53311a45.44061 45.44061 0 0 0 -74.75053 16.1334l83.4586-3.86693a45.35538 45.35538 0 0 0 -8.70807-12.26647z" fill="#f2f2f2" transform="translate(-113 -122.15293)"/><path d="m514.45218 135.53311a45.44061 45.44061 0 0 0 -74.75053 16.1334l83.4586-3.86693a45.35538 45.35538 0 0 0 -8.70807-12.26647z" fill="#f2f2f2" transform="translate(-113 -122.15293)"/><path d="m831.45218 302.53311a45.44061 45.44061 0 0 0 -74.75053 16.1334l83.4586-3.86693a45.35538 45.35538 0 0 0 -8.70807-12.26647z" fill="#f2f2f2" transform="translate(-113 -122.15293)"/><path d="m679 622.69414h151v2h-151z" fill="#2f2e41"/><g transform="translate(-113 -122.15293)"><path d="m818.12308 705.87171a7.99435 7.99435 0 0 1 -7.39693 7.97536h-.00615c-.19689.01848-.39382.02464-.59691.02464a7.99977 7.99977 0 0 1 -8-8 .824.824 0 0 1 .00616-.12308 7.99114 7.99114 0 0 1 7.10769-7.82772 8.36878 8.36878 0 0 1 .88615-.0492 7.99041 7.99041 0 0 1 7.87691 6.61539v.00616a7.865 7.865 0 0 1 .12308 1.37845z" fill="#ff7d51"/><path d="m818.12308 705.87171a7.99435 7.99435 0 0 1 -7.39693 7.97536h-.00615a6.154 6.154 0 0 1 7.28-9.36v.00616a7.865 7.865 0 0 1 .12308 1.37848z" fill="#f2f2f2"/><path d="m809.5077 699.71787a6.15385 6.15385 0 0 1 -7.37846 6.03076 7.99114 7.99114 0 0 1 7.10769-7.82772 5.96385 5.96385 0 0 1 .27077 1.79696z" fill="#f2f2f2"/><path d="m888 694.36528c0 4.97058-7.42689 4.285-9 9-5.50307 16.49422-9.051-2.45094-9-9a9 9 0 0 1 18.00006 0z" fill="#2f2e41"/><path d="m876.45687 719.33132s-.1071 11.33293-1.58323 12.071-9.8568 2.3213-8.38067 4.90453a5.93542 5.93542 0 0 0 7.7497 2.2142c2.58323-1.47613 8.8568-10.33293 8.8568-10.33293z" fill="#3f3d56"/><path d="m907.82469 729.29522s0 .10857.01084.30167a8.19454 8.19454 0 0 0 11.3234 6.987c1.07674-.42266 2.00992-.48723 1.84386.67523-.369 2.58323-.26194 6.05936 1.58323 6.05936s4.4284-4.4284 2.95227-9.22583a41.11216 41.11216 0 0 0 -4.79744-9.59486z" fill="#3f3d56"/><path d="m876.45687 719.33132s-.1071 11.33293-1.58323 12.071-9.8568 2.3213-8.38067 4.90453a5.93542 5.93542 0 0 0 7.7497 2.2142c2.58323-1.47613 8.8568-10.33293 8.8568-10.33293z" opacity=".1"/><path d="m907.82469 729.29522s0 .10857.01084.30167a8.19454 8.19454 0 0 0 11.3234 6.987c1.07674-.42266 2.00992-.48723 1.84386.67523-.369 2.58323-.26194 6.05936 1.58323 6.05936s4.4284-4.4284 2.95227-9.22583a41.11216 41.11216 0 0 0 -4.79744-9.59486z" opacity=".1"/><path d="m868.39488 696.06609a12.46086 12.46086 0 0 1 3.4126-4.45757 11.13538 11.13538 0 0 1 10.18489-2.16889c8.48776 2.2142 9.59486 8.48777 9.59486 8.48777v2.532a6.06554 6.06554 0 0 0 3.75136 5.68647c1.87867.73413 32.81624-.3007 34.66141-2.14587a20.5072 20.5072 0 0 0 3.288-4.9655v.0717a18.827 18.827 0 0 1 -2.55075 9.62944 6.1791 6.1791 0 0 0 -1.13958 3.58405c.369 2.58323 1.47613 9.59487-.73806 12.1781s-1.1071 4.4284 1.47613 4.79743 7.01163-.369 6.6426 4.05937.369 6.27356-1.47614 6.27356-2.65703-.56878-4.5022-4.62815c0 0-1.40235-.90735-6.56881.56878-3.35821.95949-7.7703 1.86841-9.06113-.73882-2.85467-5.7659-21.2121-4.629-25.39185 1.1427a19.24882 19.24882 0 0 1 -4.031 4.3366 10.1468 10.1468 0 0 1 -2.38649 1.3947c-2.2142.7842-4.88969 1.061-6.73486-.96871-3.69029-4.05937 6.17414-4.73525 6.17414-4.73525s1.5756-3.75251.83753-6.33575c0 0-8.85679-1.84516-9.22583-13.28519 0 0-11.80906 0-13.65422-5.90453l-1.84517-5.90453 3.54993-2.13a14.60338 14.60338 0 0 0 5.71992-6.34669z" fill="#3f3d56"/></g><ellipse cx="746.27938" cy="582.70868" fill="#2f2e41" rx="1.72062" ry="2.2142"/><path d="m896 698c0 5.52285-8.25208 4.761-10 10-6.1145 18.32684-10.05664-2.72327-10-10a10 10 0 0 1 20 0z" fill="#2f2e41" transform="translate(-113 -122.15293)"/></svg>